<?xml version="1.0" encoding="UTF-8"?>
<svg xmlns="http://www.w3.org/2000/svg" version="1.1" xmlns:xlink="http://www.w3.org/1999/xlink" viewBox="0 0 120 100">
  <defs>
    <style>
      .cls-1 {
        fill: #f8ff9f;
        stroke: #f8ff9f;
        stroke-miterlimit: 10;
        stroke-width: .5px;
      }

      .cls-2 {
        fill: #ffa057;
        stroke-width: 0px;
      }
    </style>
  </defs>
  <g id="Layer_1" data-name="Layer 1">
    <path class="cls-2" d="M89.3,47.9c7.9.6,19.2,2.8,20.1,12.5,1.1,9-6.1,19.1-15.7,18.7-4.3-.2-7.7-3.2-10.8-6.1-2.6-2.4-5.3-4.7-7.9-7.1-3.6-3.2-10.3-8.3-5.9-13.3,2.3-2.4,6.3-2.7,9.5-3.3,3.5-.5,7-1.3,10.5-1.4,0,0,.2,0,.2,0Z"/>
    <path class="cls-2" d="M58.4,28.9c0,4.4.8,11.3-2.7,14.4-2,1.7-4.9,2.1-7.3.8-1.6-.8-3.1-2.2-4.5-3.5-3.8-3.8-7.8-7.3-11-11.6-8.7-11.6,3.7-24.4,16.2-22.3,11.2,2.3,8.7,13.2,9.3,21.8v.4Z"/>
    <path class="cls-2" d="M101.9,29.7c0,5.4-2.7,9.4-7.5,10.7-7.7,2.1-15.4,3.9-23.2,5.7-4.2.9-8.5-3.5-7-7.3,2.8-7.5,6.6-14.5,12.9-19.8,4.7-3.9,10-5.3,15.7-2.5,5.7,2.8,8.5,7.7,9.1,13.1h0Z"/>
    <path class="cls-2" d="M29.1,69.6c-8.1.4-17.7-5.3-17.9-14.1-.2-7.3,6.9-12.3,13.6-12.8,7.8-.7,19.2,1.9,24.3,7.9,1.9,3,1.7,7.7-1,10.2-2.7,2.3-6.4,3.5-9.6,5.1-3.2,1.3-6.1,3.1-9.1,3.7h-.3Z"/>
    <path class="cls-2" d="M73.3,81.1c.5,8.7-9.1,13.6-16.5,13.5-6,0-13.2-3.8-14.6-10.1-1.3-6.2,2.9-12,6.2-17,4.1-6.8,5.7-4.8,12.5-5.9,5.9-1.7,7.6,3,9.3,8.1,1.1,3.7,2.6,7.3,3.2,11v.4h0Z"/>
    <path class="cls-1" d="M70.6,51.5c0,6.9-5.5,13.1-11.3,12.9-5.6,0-10.9-6.1-10.9-12.2s5-12.1,11.4-11.9c6.3,0,10.9,4.8,10.8,11.3h0Z"/>
  </g>
  <g id="Layer_2" data-name="Layer 2">
    <image width="494" height="430" transform="translate(-544.6 -172.4)" xlink:href="CRESCER_FLOWER_REMASTERED_no_stroke-1.png"/>
  </g>
</svg>